<?xml version="1.0" encoding="UTF-8"?>
<svg xmlns="http://www.w3.org/2000/svg" xmlns:xlink="http://www.w3.org/1999/xlink" width="479.3pt" height="110.4pt" viewBox="0 0 479.3 110.4" version="1.1">
<defs>
<clipPath id="clip1">
  <path d="M 42 0 L 144 0 L 144 110.398438 L 42 110.398438 Z M 42 0 "/>
</clipPath>
<clipPath id="clip2">
  <path d="M 357 0 L 443 0 L 443 110.398438 L 357 110.398438 Z M 357 0 "/>
</clipPath>
<clipPath id="clip3">
  <path d="M 433 10 L 479.300781 10 L 479.300781 109 L 433 109 Z M 433 10 "/>
</clipPath>
</defs>
<g id="surface1">
<path style=" stroke:none;fill-rule:evenodd;fill:rgb(0%,19.993591%,62.693787%);fill-opacity:1;" d="M 0.0390625 108.214844 L 29.75 108.214844 L 29.75 2.597656 L 0.0390625 2.597656 Z M 0.0390625 108.214844 "/>
<path style=" stroke:none;fill-rule:evenodd;fill:rgb(0%,19.993591%,62.693787%);fill-opacity:1;" d="M 149.601563 2.597656 L 206.78125 2.597656 C 227.316406 2.597656 244.117188 19.402344 244.117188 39.9375 C 244.117188 60.472656 227.316406 77.277344 206.78125 77.277344 L 183.496094 77.277344 L 183.496094 108.214844 L 149.601563 108.214844 Z M 183.496094 26.902344 L 183.496094 52.972656 L 200.171875 52.972656 C 207.34375 52.972656 213.207031 47.105469 213.207031 39.9375 C 213.207031 32.769531 207.34375 26.902344 200.171875 26.902344 Z M 183.496094 26.902344 "/>
<g clip-path="url(#clip1)" clip-rule="nonzero">
<path style=" stroke:none;fill-rule:evenodd;fill:rgb(0%,19.993591%,62.693787%);fill-opacity:1;" d="M 97.617188 -0.0195313 C 116.640625 -0.0195313 133.414063 9.605469 143.335938 24.253906 L 121.066406 39.792969 C 116.191406 32.773438 108.074219 28.175781 98.882813 28.175781 C 83.972656 28.175781 71.890625 40.257813 71.890625 55.167969 C 71.890625 70.078125 83.972656 82.15625 98.882813 82.15625 C 108.121094 82.15625 116.273438 77.515625 121.136719 70.4375 L 143.40625 85.980469 C 133.492188 100.683594 116.683594 110.355469 97.617188 110.355469 C 67.136719 110.355469 42.429688 85.644531 42.429688 55.164063 C 42.429688 24.6875 67.136719 -0.0195313 97.617188 -0.0195313 Z M 97.617188 -0.0195313 "/>
</g>
<path style=" stroke:none;fill-rule:evenodd;fill:rgb(0%,19.993591%,62.693787%);fill-opacity:1;" d="M 253.535156 108.214844 L 283.601563 108.214844 L 283.601563 2.597656 L 253.535156 2.597656 Z M 253.535156 108.214844 "/>
<path style=" stroke:none;fill-rule:evenodd;fill:rgb(0%,19.993591%,62.693787%);fill-opacity:1;" d="M 253.535156 2.597656 L 283.601563 2.597656 L 325.699219 56.726563 L 325.699219 2.597656 L 353.640625 2.597656 L 353.640625 108.214844 L 325.699219 108.214844 L 283.601563 55.398438 L 283.601563 108.214844 L 253.535156 108.214844 Z M 253.535156 2.597656 "/>
<g clip-path="url(#clip2)" clip-rule="nonzero">
<path style="fill:none;stroke-width:5.669;stroke-linecap:butt;stroke-linejoin:miter;stroke:rgb(10.594177%,9.812927%,9.423828%);stroke-opacity:1;stroke-miterlimit:4;" d="M 3610.976563 21.851563 L 4008.554688 1078.023438 L 4390.859375 1078.023438 L 3993.242188 21.851563 Z M 3610.976563 21.851563 " transform="matrix(0.1,0,0,-0.1,0,110.4)"/>
</g>
<g clip-path="url(#clip3)" clip-rule="nonzero">
<path style=" stroke:none;fill-rule:evenodd;fill:rgb(85.546875%,16.088867%,10.984802%);fill-opacity:1;" d="M 461.410156 108.214844 L 479.339844 108.214844 L 442.582031 10.730469 L 433.621094 34.527344 Z M 461.410156 108.214844 "/>
</g>
<path style=" stroke:none;fill-rule:evenodd;fill:rgb(85.546875%,16.088867%,10.984802%);fill-opacity:1;" d="M 434.34375 108.214844 L 452.273438 108.214844 L 429.761719 45.164063 L 429.617188 45.164063 L 420.488281 69.414063 Z M 434.34375 108.214844 "/>
<path style=" stroke:none;fill-rule:evenodd;fill:rgb(0%,19.993591%,62.693787%);fill-opacity:1;" d="M 361.097656 108.214844 L 399.324219 108.214844 L 439.085938 2.597656 L 400.855469 2.597656 Z M 412.929688 9.59375 L 415.878906 18.660156 L 425.535156 18.753906 L 417.820313 24.355469 L 420.71875 33.566406 L 413.003906 27.964844 L 405.140625 33.566406 L 408.085938 24.503906 L 400.328125 18.753906 L 409.863281 18.753906 Z M 400.644531 41.882813 L 403.589844 50.953125 L 413.246094 51.039063 L 405.53125 56.644531 L 408.433594 65.855469 L 400.71875 60.253906 L 392.851563 65.855469 L 395.796875 56.789063 L 388.039063 51.039063 L 397.574219 51.039063 Z M 388.039063 74.804688 L 390.984375 83.871094 L 400.644531 83.964844 L 392.929688 89.566406 L 395.828125 98.777344 L 388.113281 93.175781 L 380.25 98.777344 L 383.195313 89.714844 L 375.433594 83.964844 L 384.96875 83.964844 Z M 388.039063 74.804688 "/>
</g>
</svg>
