<svg stroke="currentColor" fill="currentColor" stroke-width="0" viewBox="0 0 448 512" height="200px" width="200px" xmlns="http://www.w3.org/2000/svg">
  <defs>
    <linearGradient id="halfGradient" x1="0%" y1="0%" x2="0%" y2="100%">
      <stop offset="50%" style="stop-color:#1946A0;stop-opacity:1" />
      <stop offset="50%" style="stop-color:#FF5733;stop-opacity:1" />
    </linearGradient>
  </defs>
  <path d="M400 224h-24v-72C376 68.2 307.8 0 224 0S72 68.2 72 152v72H48c-26.5 0-48 21.5-48 48v192c0 26.5 21.5 48 48 48h352c26.5 0 48-21.5 48-48V272c0-26.5-21.5-48-48-48zm-104 0H152v-72c0-39.7 32.3-72 72-72s72 32.3 72 72v72z" fill="url(#halfGradient)"></path>
</svg>
