<?xml version="1.0" encoding="utf-8"?>
<svg version="1.1" id="Layer_1" xmlns="http://www.w3.org/2000/svg" xmlns:xlink="http://www.w3.org/1999/xlink" x="0px" y="0px" viewBox="0 0 830 909" style="enable-background:new 0 0 830 909;" xml:space="preserve">
	<style type="text/css">
		.st0{opacity:0.7;fill:#FF1100;enable-background:new    ;}
		.st1{opacity:0.24;fill:#165FC8;enable-background:new    ;}
		.st2{fill:#165FC8;}
		.st3{fill:url(#SVGID_1_);}
		.st4{opacity:0.65;fill:url(#SVGID_00000085226334648830377670000007296090210493869454_);enable-background:new    ;}
		.st5{fill:url(#SVGID_00000015337472349717631460000009901069898855377084_);}
		.st6{fill-rule:evenodd;clip-rule:evenodd;fill:#165FC8;}
		.st7{fill:url(#SVGID_00000025442298302000642080000001976823625920824194_);}
		.st8{fill:url(#SVGID_00000161604818792584156260000012671955825319731339_);}
		.st9{fill:url(#SVGID_00000029750185003626306490000014553941258659302284_);}
		.st10{fill:url(#SVGID_00000002365835305697639540000003152271224787191199_);}
		.st11{fill:url(#SVGID_00000139994653984753282540000017406482871845375896_);}
		.st12{fill:url(#SVGID_00000072958335008792765980000006607940848681802926_);}
		.st13{fill:url(#SVGID_00000137102745405929697000000006048658586095288202_);}
		.st14{fill:url(#SVGID_00000052820581368378082890000016468199862589321137_);}
		.st15{fill:url(#SVGID_00000067918851716692402820000009619941755568839864_);}
		.st16{fill:url(#SVGID_00000047019168766689073250000003992382374566227645_);}
		.st17{fill:url(#SVGID_00000054237591836686680440000015220467022161889416_);}
		.st18{fill-rule:evenodd;clip-rule:evenodd;fill:url(#SVGID_00000023263230588129116670000000695732723743848324_);}
		.st19{fill:url(#SVGID_00000147204448128349826690000002019671466046991235_);}
		.st20{fill:url(#SVGID_00000006696268432815849170000000724851783206408337_);}
		.st21{opacity:0.65;fill:url(#SVGID_00000105391260217337645950000012330283762904125874_);enable-background:new    ;}
		.st22{fill:none;}
		.st23{fill:#28353D;}
		.st24{fill:#606161;}
		.st25{fill:url(#SVGID_00000036223123860225113170000000555601990585143734_);}
		.st26{fill:#FFCD9C;}
		.st27{fill:#F4AD7D;}
		.st28{fill:url(#SVGID_00000158710472466940413330000003685348981523618482_);}
		.st29{fill:url(#SVGID_00000035514208487693511180000000979188009489854376_);}
		.st30{fill:url(#SVGID_00000104679737424360683180000008313464167222812320_);}
		.st31{fill:url(#SVGID_00000072254317153598163020000012761382748411129244_);}
		.st32{fill:url(#SVGID_00000168076130911678954640000003955124655294471819_);}
		.st33{fill:url(#SVGID_00000174577046732668862320000017279622537512087194_);}
		.st34{fill:#EAF2FC;}
		.st35{fill:#D8E1EF;}
		.st36{fill:#0593FF;}
		.st37{fill:#0E6AE0;}
	</style>
	<path class="st0" d="M318.3,9.7C198.4,110.2,179.8,300.3,98.6,440.5C70.3,489.3,33.8,533,14.7,587.1C-29.1,711,31.2,851.6,111.8,950
	c38.4,46.9,83.3,90,137.7,109.7c41.8,15.2,86.6,15.8,130.6,16.2l770.5,7.9c86,0.9,181.6-2.3,243.4-68.7
	c42.6-45.7,59.9-112.5,74.6-176.3c18.1-78.3,34.4-163.4,6.3-238c-32.1-85.4-113.2-133.7-163.7-207.4
	c-81.8-119.3-79.9-299.8-184.1-395.1c-48.6-44.5-112.8-61.9-175.4-70.6C833.9-88.6,722.2-57.5,606.4-61.9
	C507.5-65.6,400.4-59.1,318.3,9.7z" />
	<path class="st1" d="M316.2,846.4c-43,4.3-87.4,9-125.2,30c-5.1,2.8-10.2,6.1-13,11.2c-5.6,10.2,0.8,23.7,10.6,29.8
	c9.9,6.1,22.1,6.8,33.7,7.3c207.1,9,414.5,5.4,621.7,1.9c60.2-1,121.3-2.2,179-19.5c10.4-3.1,21.8-7.8,25.7-17.9
	c5.1-13.3-6.6-28-20.1-32.2s-28.1-1-42.1,0.8c-48.8,6.3-98-3.3-146.6-11c-95.1-15-193.8-27.2-290.2-29.5
	c-32.9-0.8-60.9,10.6-93.1,15C410.1,838.8,362.9,841.7,316.2,846.4z" />
	<rect x="527.2" y="740" class="st2" width="90.8" height="75.4" />
	<linearGradient id="SVGID_1_" gradientUnits="userSpaceOnUse" x1="571.0081" y1="655.1978" x2="580.5261" y2="538.6198" gradientTransform="matrix(1 0 0 1 0 142)">
		<stop offset="0" style="stop-color:#010101;stop-opacity:1.000000e-02" />
		<stop offset="0.95" style="stop-color:#010101" />
	</linearGradient>
	<rect x="527.2" y="740" class="st3" width="90.8" height="75.4" />
	<path class="st2" d="M343.8,425.5h461.4c5.2,0,9.4,4.2,9.4,9.4v307.8c0,5.2-4.2,9.4-9.4,9.4H343.8c-5.2,0-9.4-4.2-9.4-9.4V434.8
	C334.4,429.7,338.6,425.5,343.8,425.5z" />
	<linearGradient id="SVGID_00000157269415559850293790000014644304618595897996_" gradientUnits="userSpaceOnUse" x1="573.8518" y1="237.024" x2="571.372" y2="650.503" gradientTransform="matrix(1 0 0 1 0 142)">
		<stop offset="0" style="stop-color:#FFFFFF;stop-opacity:1.000000e-02" />
		<stop offset="7.000000e-02" style="stop-color:#FFFFFF;stop-opacity:0.22" />
		<stop offset="0.16" style="stop-color:#FFFFFF;stop-opacity:0.45" />
		<stop offset="0.25" style="stop-color:#FFFFFF;stop-opacity:0.65" />
		<stop offset="0.33" style="stop-color:#FFFFFF;stop-opacity:0.8" />
		<stop offset="0.4" style="stop-color:#FFFFFF;stop-opacity:0.91" />
		<stop offset="0.46" style="stop-color:#FFFFFF;stop-opacity:0.98" />
		<stop offset="0.51" style="stop-color:#FFFFFF" />
	</linearGradient>
	<path style="opacity:0.65;fill:url(#SVGID_00000157269415559850293790000014644304618595897996_);enable-background:new    ;" d="
	M798.8,452.5V723c0,4.5-1.8,8.8-5,12s-7.5,5-12,5H363.4c-4.5,0-8.8-1.8-12-5s-5-7.5-5-12V452.5c0-4.5,1.8-8.8,5-12s7.5-5,12-5h418.4
	c4.5,0,8.8,1.8,12,5S798.8,448,798.8,452.5z" />
	<rect x="485.5" y="806.2" class="st2" width="190.9" height="19.3" />
	<linearGradient id="SVGID_00000050632191619675813960000003989262929849579651_" gradientUnits="userSpaceOnUse" x1="572.5851" y1="637.2586" x2="572.6763" y2="768.0787" gradientTransform="matrix(1 0 0 1 0 142)">
		<stop offset="0" style="stop-color:#010101;stop-opacity:1.000000e-02" />
		<stop offset="0.95" style="stop-color:#010101" />
	</linearGradient>
	<rect x="527.2" y="795.2" style="fill:url(#SVGID_00000050632191619675813960000003989262929849579651_);" width="90.8" height="11" />
	<path class="st6" d="M670.9,267.5v18.8l-11.8,0.1c-1.1,8.8-4.5,17.1-9.8,24.2l10.1,10.3L645.6,334l-9.9-10.1c-6.1,4.1-13,7-20.2,8.4
	v12.2h-19.1v-11.9c-8.1-1.2-15.9-4.2-22.7-8.8l-8.3,8.1L552,318.4l8.2-8c-5.2-7.1-8.5-15.5-9.6-24.2h-13.2v-18.8h13.7
	c1.7-7.5,5-14.5,9.8-20.6l-7.6-7.8l13.7-13l7.8,8c6.5-4.2,13.8-7,21.5-8v-13h19.1v13.2c7.8,1.5,15.1,4.7,21.5,9.3l9.8-9.5l13.4,13.4
	l-9.8,9.6c3.8,5.6,6.5,11.9,8,18.4h12.6V267.5z M572.6,279.4c0,17.5,14.4,31.8,32.1,31.8c8.5,0,16.7-3.3,22.8-9.3s9.4-14,9.4-22.5
	c0-17.5-14.4-31.8-32.1-31.8C587,247.6,572.6,261.8,572.6,279.4z" />
	<path class="st6" d="M741.3,298.9l-0.8,11.1l-7-0.4c-1,5.1-3.4,9.8-6.7,13.8l5.4,6.5l-8.7,7.1l-5.3-6.4c-3.8,2.2-7.9,3.5-12.2,4
	l-0.6,7.2l-11.2-0.8l0.5-7c-4.7-1-9.1-3.1-12.9-6.1l-5.2,4.4l-7.3-8.5l5.2-4.3c-2.7-4.4-4.3-9.4-4.5-14.6l-7.5-0.6l0.8-11.1l8,0.6
	c1.3-4.3,3.6-8.3,6.6-11.7l-4.1-4.9l8.7-7.1l4.2,5.1c4-2.2,8.4-3.5,12.9-3.8l0.6-7.7l11.2,0.8l-0.6,7.8c4.5,1.2,8.6,3.4,12.1,6.4
	l6.1-5.2l7.3,8.5l-6.2,5.2c2,3.5,3.3,7.3,3.9,11.2L741.3,298.9z M683.2,301.5c-0.8,10.3,7,19.3,17.4,20.1c5,0.4,9.9-1.2,13.7-4.4
	c3.8-3.2,6.1-7.8,6.5-12.8c0.8-10.3-7-19.3-17.4-20C693.1,283.5,684,291.2,683.2,301.5z" />
	<linearGradient id="SVGID_00000181788556724458104610000007199742862512730555_" gradientUnits="userSpaceOnUse" x1="568.788" y1="359.5582" x2="600.0179" y2="-14.9208" gradientTransform="matrix(1 0 0 1 0 142)">
		<stop offset="0" style="stop-color:#FFFFFF;stop-opacity:1.000000e-02" />
		<stop offset="7.000000e-02" style="stop-color:#FFFFFF;stop-opacity:0.22" />
		<stop offset="0.16" style="stop-color:#FFFFFF;stop-opacity:0.45" />
		<stop offset="0.25" style="stop-color:#FFFFFF;stop-opacity:0.65" />
		<stop offset="0.33" style="stop-color:#FFFFFF;stop-opacity:0.8" />
		<stop offset="0.4" style="stop-color:#FFFFFF;stop-opacity:0.91" />
		<stop offset="0.46" style="stop-color:#FFFFFF;stop-opacity:0.98" />
		<stop offset="0.51" style="stop-color:#FFFFFF" />
	</linearGradient>
	<path style="fill:url(#SVGID_00000181788556724458104610000007199742862512730555_);" d="M798.8,452.6v6H346.5v-6
	c0-4.5,1.8-8.8,5-12s7.5-5,12-5h418.4c4.5,0,8.8,1.8,12,5C797,443.8,798.8,448.1,798.8,452.6z" />
	<linearGradient id="SVGID_00000153673438137792535900000015752900786313556896_" gradientUnits="userSpaceOnUse" x1="324.0198" y1="306.6764" x2="450.2768" y2="645.9814" gradientTransform="matrix(1 0 0 1 0 142)">
		<stop offset="0" style="stop-color:#FFFFFF;stop-opacity:1.000000e-02" />
		<stop offset="7.000000e-02" style="stop-color:#FFFFFF;stop-opacity:0.22" />
		<stop offset="0.16" style="stop-color:#FFFFFF;stop-opacity:0.45" />
		<stop offset="0.25" style="stop-color:#FFFFFF;stop-opacity:0.65" />
		<stop offset="0.33" style="stop-color:#FFFFFF;stop-opacity:0.8" />
		<stop offset="0.4" style="stop-color:#FFFFFF;stop-opacity:0.91" />
		<stop offset="0.46" style="stop-color:#FFFFFF;stop-opacity:0.98" />
		<stop offset="0.51" style="stop-color:#FFFFFF" />
	</linearGradient>
	<rect x="355.7" y="488" style="fill:url(#SVGID_00000153673438137792535900000015752900786313556896_);" width="43.6" height="208.8" />
	<linearGradient id="SVGID_00000038405285694243695020000009207069738759348903_" gradientUnits="userSpaceOnUse" x1="569.0331" y1="325.5385" x2="565.9962" y2="585.5606" gradientTransform="matrix(1 0 0 1 0 142)">
		<stop offset="0" style="stop-color:#FFFFFF;stop-opacity:1.000000e-02" />
		<stop offset="7.000000e-02" style="stop-color:#FFFFFF;stop-opacity:0.22" />
		<stop offset="0.16" style="stop-color:#FFFFFF;stop-opacity:0.45" />
		<stop offset="0.25" style="stop-color:#FFFFFF;stop-opacity:0.65" />
		<stop offset="0.33" style="stop-color:#FFFFFF;stop-opacity:0.8" />
		<stop offset="0.4" style="stop-color:#FFFFFF;stop-opacity:0.91" />
		<stop offset="0.46" style="stop-color:#FFFFFF;stop-opacity:0.98" />
		<stop offset="0.51" style="stop-color:#FFFFFF" />
	</linearGradient>
	<rect x="465.1" y="502.7" style="fill:url(#SVGID_00000038405285694243695020000009207069738759348903_);" width="204.8" height="192.2" />
	<linearGradient id="SVGID_00000068638057208031228920000010068441804702385566_" gradientUnits="userSpaceOnUse" x1="514.3868" y1="493.3668" x2="531.9108" y2="-38.1843" gradientTransform="matrix(1 0 0 1 0 142)">
		<stop offset="0" style="stop-color:#010101;stop-opacity:1.000000e-02" />
		<stop offset="0.95" style="stop-color:#010101" />
	</linearGradient>
	<rect x="512.4" y="592.9" style="fill:url(#SVGID_00000068638057208031228920000010068441804702385566_);" width="6.5" height="8.3" />
	<linearGradient id="SVGID_00000178918273779923439520000012610528136320747430_" gradientUnits="userSpaceOnUse" x1="513.1011" y1="493.6635" x2="530.6253" y2="-37.8876" gradientTransform="matrix(1 0 0 1 0 142)">
		<stop offset="0" style="stop-color:#010101;stop-opacity:1.000000e-02" />
		<stop offset="0.95" style="stop-color:#010101" />
	</linearGradient>
	<rect x="512.4" y="554.2" style="fill:url(#SVGID_00000178918273779923439520000012610528136320747430_);" width="6.5" height="8.3" />
	<linearGradient id="SVGID_00000148650073289671607380000000698873865943362464_" gradientUnits="userSpaceOnUse" x1="426.3566" y1="491.194" x2="443.9075" y2="-40.357" gradientTransform="matrix(1 0 0 1 0 142)">
		<stop offset="0" style="stop-color:#010101;stop-opacity:1.000000e-02" />
		<stop offset="0.95" style="stop-color:#010101" />
	</linearGradient>
	<rect x="424.3" y="592.9" style="fill:url(#SVGID_00000148650073289671607380000000698873865943362464_);" width="6.5" height="8.3" />
	<linearGradient id="SVGID_00000090294631412421184720000010315482041754886533_" gradientUnits="userSpaceOnUse" x1="425.0691" y1="491.4909" x2="442.6191" y2="-40.0602" gradientTransform="matrix(1 0 0 1 0 142)">
		<stop offset="0" style="stop-color:#010101;stop-opacity:1.000000e-02" />
		<stop offset="0.95" style="stop-color:#010101" />
	</linearGradient>
	<rect x="424.3" y="554.2" style="fill:url(#SVGID_00000090294631412421184720000010315482041754886533_);" width="6.5" height="8.3" />
	<linearGradient id="SVGID_00000083782130808891379110000010918969515021772461_" gradientUnits="userSpaceOnUse" x1="511.6859" y1="495.0151" x2="529.2359" y2="-36.5359" gradientTransform="matrix(1 0 0 1 0 142)">
		<stop offset="0" style="stop-color:#010101;stop-opacity:1.000000e-02" />
		<stop offset="0.95" style="stop-color:#010101" />
	</linearGradient>
	<rect x="512.4" y="512.8" style="fill:url(#SVGID_00000083782130808891379110000010918969515021772461_);" width="6.5" height="8.3" />
	<linearGradient id="SVGID_00000008842782770654526110000017016008412707517596_" gradientUnits="userSpaceOnUse" x1="424.5614" y1="492.9006" x2="442.0855" y2="-38.6505" gradientTransform="matrix(1 0 0 1 0 142)">
		<stop offset="0" style="stop-color:#010101;stop-opacity:1.000000e-02" />
		<stop offset="0.95" style="stop-color:#010101" />
	</linearGradient>
	<rect x="425.2" y="512.8" style="fill:url(#SVGID_00000008842782770654526110000017016008412707517596_);" width="6.5" height="8.3" />
	<linearGradient id="SVGID_00000095297179620631809900000012816533370406537891_" gradientUnits="userSpaceOnUse" x1="469.0206" y1="493.9573" x2="486.5707" y2="-37.5739" gradientTransform="matrix(1 0 0 1 0 142)">
		<stop offset="0" style="stop-color:#010101;stop-opacity:1.000000e-02" />
		<stop offset="0.95" style="stop-color:#010101" />
	</linearGradient>
	<rect x="469.7" y="512.8" style="fill:url(#SVGID_00000095297179620631809900000012816533370406537891_);" width="6.5" height="8.3" />
	<linearGradient id="SVGID_00000018198302151002608580000017494836074121757866_" gradientUnits="userSpaceOnUse" x1="471.7418" y1="491.6439" x2="489.2918" y2="-39.9072" gradientTransform="matrix(1 0 0 1 0 142)">
		<stop offset="0" style="stop-color:#010101;stop-opacity:1.000000e-02" />
		<stop offset="0.95" style="stop-color:#010101" />
	</linearGradient>
	<rect x="469.7" y="592.9" style="fill:url(#SVGID_00000018198302151002608580000017494836074121757866_);" width="6.5" height="8.3" />
	<path class="st6" d="M436.4,591h72.3v-67.1h-72.3L436.4,591L436.4,591z M501.4,583.9h-57.7v-53h57.7V583.9z" />
	<linearGradient id="SVGID_00000034051190395898677790000010609440878141958041_" gradientUnits="userSpaceOnUse" x1="461.4612" y1="405.0297" x2="675.1562" y2="605.8407" gradientTransform="matrix(1 0 0 1 0 142)">
		<stop offset="0" style="stop-color:#FFFFFF;stop-opacity:1.000000e-02" />
		<stop offset="7.000000e-02" style="stop-color:#FFFFFF;stop-opacity:0.22" />
		<stop offset="0.16" style="stop-color:#FFFFFF;stop-opacity:0.45" />
		<stop offset="0.25" style="stop-color:#FFFFFF;stop-opacity:0.65" />
		<stop offset="0.33" style="stop-color:#FFFFFF;stop-opacity:0.8" />
		<stop offset="0.4" style="stop-color:#FFFFFF;stop-opacity:0.91" />
		<stop offset="0.46" style="stop-color:#FFFFFF;stop-opacity:0.98" />
		<stop offset="0.51" style="stop-color:#FFFFFF" />
	</linearGradient>
	<path style="fill-rule:evenodd;clip-rule:evenodd;fill:url(#SVGID_00000034051190395898677790000010609440878141958041_);" d="
	M436.4,591h72.3v-67.1h-72.3L436.4,591L436.4,591z M501.4,583.9h-57.7v-53h57.7V583.9z" />
	<linearGradient id="SVGID_00000012462771324801062660000002815762982657256124_" gradientUnits="userSpaceOnUse" x1="746.7735" y1="310.8326" x2="745.1425" y2="435.1475" gradientTransform="matrix(1 0 0 1 0 142)">
		<stop offset="0" style="stop-color:#FFFFFF;stop-opacity:1.000000e-02" />
		<stop offset="7.000000e-02" style="stop-color:#FFFFFF;stop-opacity:0.22" />
		<stop offset="0.16" style="stop-color:#FFFFFF;stop-opacity:0.45" />
		<stop offset="0.25" style="stop-color:#FFFFFF;stop-opacity:0.65" />
		<stop offset="0.33" style="stop-color:#FFFFFF;stop-opacity:0.8" />
		<stop offset="0.4" style="stop-color:#FFFFFF;stop-opacity:0.91" />
		<stop offset="0.46" style="stop-color:#FFFFFF;stop-opacity:0.98" />
		<stop offset="0.51" style="stop-color:#FFFFFF" />
	</linearGradient>
	<rect x="699.6" y="469.6" style="fill:url(#SVGID_00000012462771324801062660000002815762982657256124_);" width="92.7" height="92" />
	<linearGradient id="SVGID_00000093175963155082546540000012472853271502235059_" gradientUnits="userSpaceOnUse" x1="746.7739" y1="412.0045" x2="745.1428" y2="536.3206" gradientTransform="matrix(1 0 0 1 0 142)">
		<stop offset="0" style="stop-color:#FFFFFF;stop-opacity:1.000000e-02" />
		<stop offset="7.000000e-02" style="stop-color:#FFFFFF;stop-opacity:0.22" />
		<stop offset="0.16" style="stop-color:#FFFFFF;stop-opacity:0.45" />
		<stop offset="0.25" style="stop-color:#FFFFFF;stop-opacity:0.65" />
		<stop offset="0.33" style="stop-color:#FFFFFF;stop-opacity:0.8" />
		<stop offset="0.4" style="stop-color:#FFFFFF;stop-opacity:0.91" />
		<stop offset="0.46" style="stop-color:#FFFFFF;stop-opacity:0.98" />
		<stop offset="0.51" style="stop-color:#FFFFFF" />
	</linearGradient>
	<rect x="699.6" y="570.8" style="fill:url(#SVGID_00000093175963155082546540000012472853271502235059_);" width="92.7" height="92" />
	<linearGradient id="SVGID_00000000923680730389161920000015960427205838165162_" gradientUnits="userSpaceOnUse" x1="377.5076" y1="342.6132" x2="377.4926" y2="359.3522" gradientTransform="matrix(1 0 0 1 0 142)">
		<stop offset="0" style="stop-color:#FFFFFF;stop-opacity:1.000000e-02" />
		<stop offset="7.000000e-02" style="stop-color:#FFFFFF;stop-opacity:0.22" />
		<stop offset="0.16" style="stop-color:#FFFFFF;stop-opacity:0.45" />
		<stop offset="0.25" style="stop-color:#FFFFFF;stop-opacity:0.65" />
		<stop offset="0.33" style="stop-color:#FFFFFF;stop-opacity:0.8" />
		<stop offset="0.4" style="stop-color:#FFFFFF;stop-opacity:0.91" />
		<stop offset="0.46" style="stop-color:#FFFFFF;stop-opacity:0.98" />
		<stop offset="0.51" style="stop-color:#FFFFFF" />
	</linearGradient>
	<rect x="355.7" y="487.1" style="opacity:0.65;fill:url(#SVGID_00000000923680730389161920000015960427205838165162_);enable-background:new    ;" width="43.6" height="12" />
	<path class="st22" d="M252.3,504.6h41.9c1.2,0,2.2,1,2.2,2.2v3.8c0,1.2-1,2.2-2.2,2.2h-41.9c-1.2,0-2.2-1-2.2-2.2v-3.8
	C250.1,505.6,251.1,504.6,252.3,504.6z" />
	<path class="st22" d="M272.9,580c-7.9,0-14.5-11.6-14.5-19.4v-47.8h28.7v47.8C287.1,568.4,280.9,580,272.9,580z" />
	<path class="st23" d="M458.3,635.2c-0.6-3.3-1-7.9,0.2-8.2C461,626.2,458.3,635.2,458.3,635.2z" />
	<path class="st24" d="M591,815c-0.5,11.6-9.5,54.2-9.8,65.8c0,3.9,1,9.8-0.2,13.5c-2.6,7.9-11.7,6.8-12.9,2.2l-0.5-2.3
	c-4.2-22.6,2.6-48.1,0-77.6c-1.5-18-8.7-52.6-13.5-52.9c-2.5,0-59.2,118.8-64.2,126.1c-2.4,3.7-9.3,3.1-12.6,6.1
	c-3.3,3,27.6-90,40.5-139.2c3-10.1,5-20.6,5.9-31.1c0.4-6.1-1.6-8.1,4-9.9c3.9-1.2,9.3-0.9,13.5-1.2c4.6-0.3,47-0.4,47,2.5
	C587.9,733.1,592.1,788.2,591,815z" />
	<linearGradient id="SVGID_00000111876570953133036240000014571354027305507752_" gradientUnits="userSpaceOnUse" x1="542.1475" y1="680.8228" x2="454.0744" y2="528.7248" gradientTransform="matrix(1 0 0 1 0 142)">
		<stop offset="0" style="stop-color:#010101;stop-opacity:1.000000e-02" />
		<stop offset="0.95" style="stop-color:#010101" />
	</linearGradient>
	<path style="fill:url(#SVGID_00000111876570953133036240000014571354027305507752_);" d="M591,815c-0.5,11.6-9.5,54.2-9.8,65.8
	c0,3.9,1,9.8-0.2,13.5c-2.6,7.9-11.7,6.8-12.9,2.2l-0.5-2.3c-4.2-22.6,2.6-48.1,0-77.6c-1.5-18-8.7-52.6-13.5-52.9
	c-2.5,0-59.2,118.8-64.2,126.1c-2.4,3.7-9.3,3.1-12.6,6.1c-3.3,3,27.6-90,40.5-139.2c3-10.1,5-20.6,5.9-31.1c0.4-6.1-1.6-8.1,4-9.9
	c3.9-1.2,9.3-0.9,13.5-1.2c4.6-0.3,47-0.4,47,2.5C587.9,733.1,592.1,788.2,591,815z" />
	<path class="st26" d="M540.9,568.2c-0.4-3.7-2.1-5.7-3.8-5.7s-2.8,2-2.4,5.7c0.1,2.7,2.2,5,4.9,5.4
	C541.3,573.5,541.3,571.8,540.9,568.2z" />
	<path class="st26" d="M570.9,568.2c0.2-3.7,1.9-5.7,3.7-5.7s2.9,2,2.6,5.7c0,2.8-2.1,5.1-4.8,5.4
	C570.6,573.5,570.6,571.8,570.9,568.2z" />
	<path class="st27" d="M574.3,584.3c-0.2,1.9-8.5,10.4-17.9,10.4s-17.2-7.7-18.8-10.8s5-43,8.8-46.3s19.3-1.1,20.6,0.6
	C570.1,542.3,575.4,576.6,574.3,584.3z" />
	<path class="st26" d="M570.5,554.2c-1.3,0.6-6.3-12.1-7.3-14.2s-0.9-4.3,0.4-4.9c1.3-0.6,3.2,0.6,4.2,2.8S571.7,553.6,570.5,554.2z" />
	<path class="st26" d="M542.3,553.3c-1.3-0.4,2.2-13.6,2.9-15.9c0.8-2.3,2.5-3.8,3.7-3.3c1.3,0.4,1.8,2.7,1,5
	C549.3,541.3,543.6,553.7,542.3,553.3z" />
	<path class="st27" d="M547.6,582.7h20.2l3,19c-11,5.9-17.4,5.2-26-1.3L547.6,582.7z" />
	<path class="st27" d="M555.9,586.5c0-0.3,0.8-0.6,1.9-0.6c1,0,1.9,0.3,1.9,0.6s-0.8,0.4-1.9,0.4
	C556.8,586.9,555.9,586.9,555.9,586.5z" />
	<path class="st24" d="M575.4,578c0.8-4.5,2-36.9-1-41.2s-21.3-7.1-24.1-6.4c-6.2,1.5-5.1,5.9-5.1,5.9c-1.8,0-3.7,0.5-5.2,1.4
	c-2.1,1.4-6.6,21.8-3,37.2c1.6,6.9,7.9,13,18.9,13.3C569.2,588.6,574.5,583.6,575.4,578z" />
	<path class="st24" d="M550.4,531.9c1.4-1.2,3.3-1.8,5.2-1.6c5.7,0,11.3,1,16.6,3.1c2.9,1,5.6,2.7,7.8,4.9c2.2,2.3,3.2,5.4,2.8,8.6
	c-1,4.6-5.8,7.5-7.4,11.9c-1.3,3.6-0.4,7-0.3,10.6c0,2.9-0.2,5.8-0.6,8.6c-0.9,5.6-6,10.6-19.2,10.2c-10.6-0.3-16.7-6.3-18.3-13.2
	c-2.1-11.4-1.6-23.2,1.6-34.4c5.7,1.3,11.6,2,17.4,2c6.2,0.1,12.4-0.7,18.5-2.1c1,6,1,18,0.7,26.9" />
	<path class="st2" d="M517.8,598.3c-3.2,0.3-6.2,1.3-8.9,3.1c-4.6,3.6-4.9,10.3-4.8,16.1c-0.2,8.1,0.4,16.1,1.7,24.1
	c1.4,7.3,3.9,14.3,5.9,21.4c3.2,11.6,4.9,23.6,5,35.7c0,6.6-0.1,13.9,4,19.1c4.5,5.6,12.6,6.7,19.8,7.1c10.2,0.6,20.5,0.7,30.8,0.2
	c6.9-0.3,14.2-1,19.6-5.2c4.3-3.3,14.5-116.6,6.6-119.5s-16.4-3.6-24.8-4.3C554,594.5,536.3,593.3,517.8,598.3z" />
	<linearGradient id="SVGID_00000168828149775262859770000001126822845627336836_" gradientUnits="userSpaceOnUse" x1="605.9913" y1="679.723" x2="445.8542" y2="684.2661" gradientTransform="matrix(1 0 0 1 0 142)">
		<stop offset="0" style="stop-color:#010101;stop-opacity:1.000000e-02" />
		<stop offset="0.95" style="stop-color:#010101" />
	</linearGradient>
	<path style="fill:url(#SVGID_00000168828149775262859770000001126822845627336836_);" d="M576.9,833.2c-1,12.8-3.4,59.5-3.4,59.5
	l-6.1-0.2c-4.2-22.4,2.6-47.9,0-77.1c-1.5-17.9-8.7-52.3-13.3-52.6c1.4-11.5,9.2-9.8,9.2-9.8c5.7,8.5,10.6,17.4,14.7,26.7
	C582.7,791.9,578,820.3,576.9,833.2z" />
	<path class="st2" d="M461.7,893.6c-1,0.7-1.7,1.7-2.1,2.8c-0.2,0.9-0.1,1.9,0.3,2.7c1.1,2.2,3.1,3.7,5.5,4.2s4.8,0.5,7.2,0.2
	l7.7-0.5c2,0,3.9-0.4,5.8-0.9c1.9-0.6,3.4-1.9,4.3-3.6c0.5-1.3,0.6-2.6,0.5-4c0-6.3-2.2-11.3-9.2-9.8
	C474.5,886,467.6,889.1,461.7,893.6z" />
	<path class="st2" d="M590.1,896.4c0.9,0.6,1.5,1.5,1.9,2.5c0.2,0.8,0.1,1.7-0.2,2.4c-1,2-2.9,3.4-5.1,3.8c-2.2,0.4-4.4,0.5-6.6,0.2
	l-7-0.5c-1.8,0-3.6-0.3-5.3-0.8s-3.1-1.7-3.9-3.3c-0.4-1.2-0.6-2.4-0.5-3.6c0-5.7,2-10.3,8.4-8.9
	C578.5,889.6,584.8,892.4,590.1,896.4z" />
	<path class="st2" d="M598.6,600.2c0,0,30.3,17.6,39.4,39.9c9.1,22.3-29.8,76-29.8,76l-8.3-8.4c0,0,20.3-40.5,17.2-50.7
	c-3.1-10.1-15.4-19.6-15.4-19.6L598.6,600.2z" />
	<path class="st2" d="M512.4,635c0,0-42.1,18.7-59.3,9.5c-17.1-9.2,0.5-55.4,0.5-55.4l11.5,3.9c0,0-9.6,23.6,1.4,27.1
	s43.8-19.5,43.8-19.5L512.4,635z" />
	<path class="st27" d="M591.7,715.2c-1.2,0.8-2.2,1.8-2.9,3.1c-0.4,1-0.5,2.1-0.4,3.2c-0.1,2.7,1.1,5.2,3.3,6.9
	c1.5,0.8,3.2,1.3,5,1.4c1.1,0.2,2.2,0.2,3.3,0s2-0.9,2.4-1.9c0.1-0.6,0.2-1.2,0.2-1.9c0.1-3.1,2.5-5.6,4.4-8.1
	c0.5-0.5,0.8-1.1,0.9-1.7c0-0.7-0.3-1.4-0.8-1.9c-1.3-1.7-4.5-4.9-7.1-4.7C597.4,710,593.7,713.6,591.7,715.2z" />
	<path class="st27" d="M472.3,582.2c0.5-0.8,0.9-1.6,1.1-2.5c0.1-0.9-0.4-1.8-1.2-2.3c-1.4-0.5-3.1,0.8-4.5,0.3
	c-0.5-0.2-0.9-0.6-1.1-1c-1.6-2.2-2.6-4.9-2.7-7.6c0.1-1.4-0.1-2.9-0.4-4.3c-0.4-1.5-1.9-2.4-3.5-2.2c-1.3,0.3-2,1.5-2.8,2.5
	s-2.4,2.2-3.5,3.4c-1.8,2.6-2.8,5.5-3,8.6c-0.6,3.8-0.9,8.2,1.9,11c2.2,2.1,8.9,4.7,12,3.5C467.9,590.4,470.6,585,472.3,582.2z" />
	<linearGradient id="SVGID_00000155854180426546188280000013161755403268825013_" gradientUnits="userSpaceOnUse" x1="188.4185" y1="306.9117" x2="188.4185" y2="355.3689" gradientTransform="matrix(0.8063 -0.5914 0.5914 0.8063 -109.0173 162.0133)">
		<stop offset="0" style="stop-color:#EDEFF0" />
		<stop offset="1" style="stop-color:#B0BEC5" />
	</linearGradient>
	<path style="fill:url(#SVGID_00000155854180426546188280000013161755403268825013_);" d="M284.7,269.6c-1.6-2.2-4.6-2.7-6.8-1
	l-97.7,71.6c-2.2,1.6-2.7,4.6-1,6.8l13.6,18.5l105.6-77.3L284.7,269.6z" />
	<linearGradient id="SVGID_00000155120702592939343460000011317915133107642026_" gradientUnits="userSpaceOnUse" x1="188.5065" y1="436.6145" x2="188.5065" y2="323.1377" gradientTransform="matrix(0.8063 -0.5914 0.5914 0.8063 -109.0173 162.0133)">
		<stop offset="0" style="stop-color:#4A84D8" />
		<stop offset="1" style="stop-color:#165FC8" />
	</linearGradient>
	<path style="fill:url(#SVGID_00000155120702592939343460000011317915133107642026_);" d="M192.8,365.6l50.9,69.3
	c1.6,2.2,4.6,2.7,6.8,1l97.7-71.6c2.2-1.6,2.7-4.6,1-6.8l-50.9-69.2L192.8,365.6z" />
	<linearGradient id="SVGID_00000048459589245090099340000008641233221034151852_" gradientUnits="userSpaceOnUse" x1="190.6222" y1="300.4345" x2="190.6222" y2="331.5486" gradientTransform="matrix(0.8063 -0.5914 0.5914 0.8063 -109.0173 162.0133)">
		<stop offset="0" style="stop-color:#A5A5A5" />
		<stop offset="1" style="stop-color:#7C7C7C" />
	</linearGradient>
	<path style="fill:url(#SVGID_00000048459589245090099340000008641233221034151852_);" d="M223.7,293.4L223.7,293.4
	c3.2-2.4,7.7-1.6,10.1,1.6l5.8,7.9c2.4,3.2,1.6,7.7-1.6,10.1l0,0c-3.2,2.4-7.7,1.6-10.1-1.6l-5.8-7.9
	C219.8,300.3,220.5,295.8,223.7,293.4z" />
	<linearGradient id="SVGID_00000063630496566896439910000013091322982551520695_" gradientUnits="userSpaceOnUse" x1="151.8786" y1="300.4345" x2="151.8786" y2="331.5486" gradientTransform="matrix(0.8063 -0.5914 0.5914 0.8063 -109.0173 162.0133)">
		<stop offset="0" style="stop-color:#A5A5A5" />
		<stop offset="1" style="stop-color:#7C7C7C" />
	</linearGradient>
	<path style="fill:url(#SVGID_00000063630496566896439910000013091322982551520695_);" d="M192.5,316.3L192.5,316.3
	c3.2-2.4,7.7-1.6,10.1,1.6l5.8,7.9c2.4,3.2,1.6,7.7-1.6,10.1l0,0c-3.2,2.4-7.7,1.6-10.1-1.6l-5.8-7.9
	C188.5,323.2,189.3,318.7,192.5,316.3z" />
	<linearGradient id="SVGID_00000123401544900082639780000007129878302012586660_" gradientUnits="userSpaceOnUse" x1="229.4543" y1="300.4345" x2="229.4543" y2="331.5486" gradientTransform="matrix(0.8063 -0.5914 0.5914 0.8063 -109.0173 162.0133)">
		<stop offset="0" style="stop-color:#A5A5A5" />
		<stop offset="1" style="stop-color:#7C7C7C" />
	</linearGradient>
	<path style="fill:url(#SVGID_00000123401544900082639780000007129878302012586660_);" d="M255.1,270.5L255.1,270.5
	c3.2-2.4,7.7-1.6,10.1,1.6l5.8,7.9c2.4,3.2,1.6,7.7-1.6,10.1l0,0c-3.2,2.4-7.7,1.6-10.1-1.6l-5.8-7.9
	C251.1,277.3,251.8,272.8,255.1,270.5z" />
	<rect x="280.7" y="312.7" transform="matrix(0.8064 -0.5914 0.5914 0.8064 -133.0757 232.2398)" class="st34" width="14.9" height="13.2" />
	<rect x="296.3" y="334" transform="matrix(0.8064 -0.5914 0.5914 0.8064 -142.6383 245.5932)" class="st34" width="14.9" height="13.2" />
	<rect x="311.9" y="355.3" transform="matrix(0.8064 -0.5914 0.5914 0.8064 -152.2009 258.9467)" class="st34" width="14.9" height="13.2" />
	<rect x="218.2" y="358.5" transform="matrix(0.8064 -0.5914 0.5914 0.8064 -172.2651 204.1419)" class="st34" width="14.9" height="13.2" />
	<rect x="233.8" y="379.8" transform="matrix(0.8064 -0.5914 0.5914 0.8064 -181.8284 217.4951)" class="st34" width="14.9" height="13.2" />
	<rect x="249.3" y="401.2" transform="matrix(0.8064 -0.5914 0.5914 0.8064 -191.4423 230.812)" class="st34" width="14.9" height="13.2" />
	<rect x="249.4" y="335.6" transform="matrix(0.8064 -0.5914 0.5914 0.8064 -152.6708 218.1907)" class="st34" width="14.9" height="13.2" />
	<rect x="265" y="356.9" transform="matrix(0.8064 -0.5914 0.5914 0.8064 -162.2333 231.5442)" class="st34" width="14.9" height="13.2" />
	<rect x="280.6" y="378.2" transform="matrix(0.8064 -0.5914 0.5914 0.8064 -171.7959 244.8976)" class="st34" width="14.9" height="13.2" />
	<g id="Browser_Shield">
		<path class="st35" d="M362.4,181l99.8-22.6c11-2.5,22,4.4,24.5,15.5l18.1,79.8c2.5,11-4.4,22-15.5,24.5l-99.8,22.6
		c-11,2.5-22-4.4-24.5-15.5l-18.1-79.8C344.4,194.4,351.4,183.5,362.4,181z" />
		<path class="st36" d="M486.6,173.8l2.3,9.9l-139.7,31.7l-2.3-9.9c-2.5-11,4.4-22,15.5-24.5l99.8-22.6
		C473.1,155.9,484.1,162.8,486.6,173.8z" />
		<circle class="st37" cx="400.7" cy="188" r="5.1" />
		<circle class="st37" cx="385.7" cy="191.4" r="5.1" />
		<circle class="st37" cx="370.7" cy="194.8" r="5.1" />
		<path class="st36" d="M449.6,218.9c-16.2,3.7-22-2.4-22.1-2.6c-1.3-1.5-3.2-2.2-5.1-1.7l0,0c-1.9,0.4-3.3,1.8-3.7,3.6
		c0,0-2.1,6.2-12.9,10.3c-2,0.8-3.9,1.3-6,1.8c-2.7,0.6-4.5,3.4-3.8,6.1l2.2,9.7c3.2,14.2,14.8,25.1,29.3,27.4l6.7,1
		c1.3,0.2,2.6-0.1,3.7-0.8l5.6-3.8c12.1-8.3,17.8-23.1,14.6-37.4l-2.2-9.7C455.1,220,452.3,218.3,449.6,218.9z" />
	</g>
</svg>
